<svg width="890" height="210" viewBox="0 0 890 210" fill="none" xmlns="http://www.w3.org/2000/svg">
<path fill-rule="evenodd" clip-rule="evenodd" d="M69.1373 75.8891C69.1373 65.4666 60.6883 57.0176 50.2658 57.0176C39.8433 57.0176 31.3943 65.4666 31.3943 75.8891V163.956C31.3943 174.378 39.8433 182.828 50.2658 182.828C60.6883 182.828 69.1373 174.378 69.1373 163.956V75.8891ZM119.461 75.8891C119.461 65.4666 111.012 57.0176 100.59 57.0176C90.1673 57.0176 81.7183 65.4666 81.7183 75.8891V163.956C81.7183 174.378 90.1673 182.828 100.59 182.828C111.012 182.828 119.461 174.378 119.461 163.956V75.8891ZM150.914 57.0176C161.336 57.0176 169.785 65.4666 169.785 75.8891V113.632C169.785 124.055 161.336 132.504 150.914 132.504C140.491 132.504 132.042 124.055 132.042 113.632V75.8891C132.042 65.4666 140.491 57.0176 150.914 57.0176ZM169.785 157.666C169.785 147.243 161.336 138.794 150.914 138.794C140.491 138.794 132.042 147.243 132.042 157.666V163.956C132.042 174.378 140.491 182.828 150.914 182.828C161.336 182.828 169.785 174.378 169.785 163.956V157.666Z" fill="#009F48"/>
<path d="M31.3945 25.5649C31.3945 22.0908 34.2109 19.2744 37.685 19.2744H163.495C166.969 19.2744 169.786 22.0908 169.786 25.5649C169.786 39.4615 158.521 50.7269 144.624 50.7269H56.5565C42.6599 50.7269 31.3945 39.4615 31.3945 25.5649Z" fill="#F7F7F7"/>
<path d="M225.138 158.68V69.3914H255.814C262.387 69.3914 268.322 70.3044 273.617 72.1303C279.003 73.8649 283.294 76.8321 286.49 81.0318C289.685 85.2314 291.283 90.9375 291.283 98.15C291.283 105.089 289.685 110.795 286.49 115.268C283.294 119.742 279.049 123.074 273.754 125.265C268.459 127.365 262.661 128.415 256.362 128.415H245.269V158.68H225.138ZM245.269 112.392H255.129C266.085 112.392 271.563 107.645 271.563 98.15C271.563 93.4938 270.102 90.2071 267.18 88.2899C264.259 86.3726 260.059 85.414 254.581 85.414H245.269V112.392ZM305.074 158.68V90.7549H325.205V158.68H305.074ZM315.071 80.7579C311.693 80.7579 308.954 79.7993 306.854 77.882C304.754 75.9648 303.704 73.4085 303.704 70.2131C303.704 67.0177 304.754 64.4613 306.854 62.5441C308.954 60.6269 311.693 59.6682 315.071 59.6682C318.449 59.6682 321.188 60.6269 323.287 62.5441C325.387 64.4613 326.437 67.0177 326.437 70.2131C326.437 73.4085 325.387 75.9648 323.287 77.882C321.188 79.7993 318.449 80.7579 315.071 80.7579ZM372.501 160.323C366.202 160.323 360.496 158.954 355.383 156.215C350.362 153.385 346.345 149.322 343.332 144.027C340.41 138.64 338.95 132.204 338.95 124.717C338.95 117.14 340.593 110.703 343.88 105.408C347.166 100.113 351.503 96.0958 356.889 93.3569C362.276 90.5267 368.073 89.1116 374.282 89.1116C378.481 89.1116 382.179 89.7963 385.374 91.1657C388.661 92.5352 391.582 94.2698 394.139 96.3697L384.689 109.38C381.494 106.732 378.436 105.408 375.514 105.408C370.675 105.408 366.795 107.143 363.874 110.612C361.043 114.081 359.628 118.783 359.628 124.717C359.628 130.56 361.043 135.262 363.874 138.823C366.795 142.292 370.447 144.027 374.829 144.027C377.02 144.027 379.166 143.57 381.266 142.657C383.366 141.653 385.283 140.466 387.017 139.097L394.96 152.244C391.582 155.165 387.93 157.265 384.005 158.543C380.079 159.73 376.244 160.323 372.501 160.323ZM406.847 158.68V62.681H426.43V117.733H426.978L448.478 90.7549H470.39L446.561 118.692L472.17 158.68H450.396L435.058 132.249L426.43 141.973V158.68H406.847ZM500.36 160.323C493.422 160.323 488.583 158.269 485.844 154.161C483.196 149.961 481.873 144.438 481.873 137.59V62.681H502.004V138.412C502.004 140.512 502.369 141.973 503.099 142.794C503.921 143.616 504.743 144.027 505.564 144.027C506.021 144.027 506.386 144.027 506.66 144.027C507.025 143.935 507.481 143.844 508.029 143.753L510.494 158.68C509.399 159.136 507.984 159.502 506.249 159.776C504.606 160.141 502.643 160.323 500.36 160.323ZM551.459 160.323C544.977 160.323 539.134 158.908 533.93 156.078C528.726 153.248 524.618 149.185 521.605 143.89C518.592 138.595 517.086 132.204 517.086 124.717C517.086 117.322 518.592 110.977 521.605 105.682C524.709 100.387 528.726 96.324 533.656 93.4938C538.586 90.5723 543.745 89.1116 549.131 89.1116C555.613 89.1116 560.954 90.5723 565.154 93.4938C569.445 96.324 572.64 100.204 574.74 105.134C576.931 109.973 578.027 115.496 578.027 121.705C578.027 123.439 577.935 125.174 577.753 126.909C577.57 128.552 577.388 129.784 577.205 130.606H536.532C537.445 135.536 539.499 139.188 542.695 141.562C545.89 143.844 549.725 144.985 554.198 144.985C559.037 144.985 563.921 143.479 568.851 140.466L575.562 152.654C572.092 155.028 568.212 156.9 563.921 158.269C559.63 159.639 555.476 160.323 551.459 160.323ZM536.395 117.322H560.909C560.909 113.579 559.996 110.521 558.17 108.147C556.435 105.682 553.559 104.449 549.542 104.449C546.438 104.449 543.653 105.545 541.188 107.736C538.723 109.836 537.126 113.031 536.395 117.322ZM611.931 160.323C607.458 160.323 602.847 159.456 598.1 157.721C593.444 155.987 589.381 153.704 585.912 150.874L594.95 138.275C598.054 140.557 601.021 142.338 603.852 143.616C606.773 144.803 609.649 145.396 612.479 145.396C615.492 145.396 617.683 144.894 619.053 143.89C620.422 142.794 621.107 141.379 621.107 139.645C621.107 138.092 620.422 136.814 619.053 135.81C617.775 134.806 616.086 133.893 613.986 133.071C611.886 132.158 609.649 131.245 607.275 130.332C604.536 129.237 601.798 127.867 599.059 126.224C596.411 124.58 594.174 122.481 592.348 119.924C590.522 117.277 589.609 114.081 589.609 110.338C589.609 104.039 591.983 98.926 596.731 95.0002C601.569 91.0744 607.869 89.1116 615.629 89.1116C620.833 89.1116 625.398 90.0245 629.324 91.8505C633.341 93.5851 636.764 95.548 639.595 97.7391L630.556 109.79C628.182 107.964 625.809 106.549 623.435 105.545C621.061 104.541 618.687 104.039 616.314 104.039C611.11 104.039 608.508 105.819 608.508 109.38C608.508 111.571 609.786 113.26 612.342 114.447C614.99 115.542 618.048 116.729 621.518 118.007C624.439 119.011 627.269 120.335 630.008 121.979C632.839 123.531 635.167 125.63 636.993 128.278C638.91 130.834 639.868 134.212 639.868 138.412C639.868 144.529 637.495 149.733 632.747 154.024C628 158.223 621.061 160.323 611.931 160.323ZM682.234 160.323C675.934 160.323 670.228 158.954 665.116 156.215C660.094 153.385 656.077 149.322 653.064 144.027C650.143 138.64 648.682 132.204 648.682 124.717C648.682 117.14 650.325 110.703 653.612 105.408C656.899 100.113 661.235 96.0958 666.622 93.3569C672.009 90.5267 677.806 89.1116 684.014 89.1116C688.214 89.1116 691.911 89.7963 695.107 91.1657C698.393 92.5352 701.315 94.2698 703.871 96.3697L694.422 109.38C691.227 106.732 688.168 105.408 685.247 105.408C680.408 105.408 676.528 107.143 673.606 110.612C670.776 114.081 669.361 118.783 669.361 124.717C669.361 130.56 670.776 135.262 673.606 138.823C676.528 142.292 680.18 144.027 684.562 144.027C686.753 144.027 688.898 143.57 690.998 142.657C693.098 141.653 695.015 140.466 696.75 139.097L704.693 152.244C701.315 155.165 697.663 157.265 693.737 158.543C689.811 159.73 685.977 160.323 682.234 160.323ZM732.36 160.323C726.152 160.323 721.222 158.36 717.57 154.435C713.918 150.418 712.092 145.533 712.092 139.781C712.092 132.66 715.105 127.091 721.131 123.074C727.156 119.057 736.879 116.364 750.3 114.994C750.117 111.981 749.205 109.608 747.561 107.873C746.009 106.047 743.361 105.134 739.618 105.134C736.788 105.134 733.912 105.682 730.991 106.778C728.069 107.873 724.965 109.38 721.678 111.297L714.42 98.013C718.711 95.3654 723.276 93.2199 728.115 91.5766C733.045 89.9332 738.158 89.1116 743.453 89.1116C752.126 89.1116 758.791 91.6222 763.447 96.6436C768.103 101.665 770.431 109.38 770.431 119.787V158.68H753.998L752.628 151.696H752.08C749.25 154.252 746.192 156.352 742.905 157.995C739.71 159.547 736.195 160.323 732.36 160.323ZM739.207 144.712C741.49 144.712 743.453 144.209 745.096 143.205C746.831 142.11 748.565 140.694 750.3 138.96V127.046C743.179 127.958 738.249 129.419 735.51 131.428C732.771 133.345 731.402 135.627 731.402 138.275C731.402 140.466 732.086 142.11 733.456 143.205C734.917 144.209 736.834 144.712 739.207 144.712ZM787.459 158.68V90.7549H803.893L805.262 99.3825H805.81C808.732 96.6436 811.927 94.2698 815.396 92.2613C818.957 90.1615 823.02 89.1116 827.585 89.1116C834.98 89.1116 840.32 91.5766 843.607 96.5066C846.985 101.345 848.674 108.01 848.674 116.501V158.68H828.543V119.103C828.543 114.173 827.858 110.795 826.489 108.969C825.211 107.143 823.111 106.23 820.189 106.23C817.633 106.23 815.442 106.823 813.616 108.01C811.79 109.106 809.782 110.703 807.59 112.803V158.68H787.459Z" fill="white"/>
</svg>
