<svg width="890" height="210" viewBox="0 0 890 210" fill="none" xmlns="http://www.w3.org/2000/svg">
<path fill-rule="evenodd" clip-rule="evenodd" d="M69.1373 75.1406C69.1373 64.7182 60.6883 56.2691 50.2658 56.2691C39.8433 56.2691 31.3943 64.7182 31.3943 75.1406V163.208C31.3943 173.63 39.8433 182.079 50.2658 182.079C60.6883 182.079 69.1373 173.63 69.1373 163.208V75.1406ZM119.461 75.1406C119.461 64.7182 111.012 56.2691 100.59 56.2691C90.1673 56.2691 81.7183 64.7182 81.7183 75.1406V163.208C81.7183 173.63 90.1673 182.079 100.59 182.079C111.012 182.079 119.461 173.63 119.461 163.208V75.1406ZM150.914 56.2691C161.336 56.2691 169.785 64.7182 169.785 75.1406V112.884C169.785 123.306 161.336 131.755 150.914 131.755C140.491 131.755 132.042 123.306 132.042 112.884V75.1406C132.042 64.7182 140.491 56.2691 150.914 56.2691ZM169.785 156.917C169.785 146.495 161.336 138.046 150.914 138.046C140.491 138.046 132.042 146.495 132.042 156.917V163.208C132.042 173.63 140.491 182.079 150.914 182.079C161.336 182.079 169.785 173.63 169.785 163.208V156.917Z" fill="#009F48"/>
<path d="M31.3945 24.8165C31.3945 21.3423 34.2109 18.526 37.685 18.526H163.495C166.969 18.526 169.786 21.3423 169.786 24.8165C169.786 38.7131 158.521 49.9785 144.624 49.9785H56.5565C42.6599 49.9785 31.3945 38.7131 31.3945 24.8165Z" fill="#777777"/>
<path d="M225.138 157.932V68.6429H255.814C262.387 68.6429 268.322 69.5559 273.617 71.3819C279.003 73.1165 283.294 76.0837 286.49 80.2833C289.685 84.483 291.283 90.1891 291.283 97.4015C291.283 104.34 289.685 110.046 286.49 114.52C283.294 118.993 279.049 122.326 273.754 124.517C268.459 126.617 262.661 127.667 256.362 127.667H245.269V157.932H225.138ZM245.269 111.644H255.129C266.085 111.644 271.563 106.896 271.563 97.4015C271.563 92.7454 270.102 89.4587 267.18 87.5414C264.259 85.6242 260.059 84.6656 254.581 84.6656H245.269V111.644ZM305.074 157.932V90.0065H325.205V157.932H305.074ZM315.071 80.0094C311.693 80.0094 308.954 79.0508 306.854 77.1336C304.754 75.2163 303.704 72.66 303.704 69.4646C303.704 66.2692 304.754 63.7129 306.854 61.7957C308.954 59.8784 311.693 58.9198 315.071 58.9198C318.449 58.9198 321.188 59.8784 323.287 61.7957C325.387 63.7129 326.437 66.2692 326.437 69.4646C326.437 72.66 325.387 75.2163 323.287 77.1336C321.188 79.0508 318.449 80.0094 315.071 80.0094ZM372.501 159.575C366.202 159.575 360.496 158.205 355.383 155.466C350.362 152.636 346.345 148.574 343.332 143.278C340.41 137.892 338.95 131.455 338.95 123.969C338.95 116.391 340.593 109.955 343.88 104.66C347.166 99.3644 351.503 95.3473 356.889 92.6084C362.276 89.7782 368.073 88.3631 374.282 88.3631C378.481 88.3631 382.179 89.0478 385.374 90.4173C388.661 91.7868 391.582 93.5214 394.139 95.6212L384.689 108.631C381.494 105.983 378.436 104.66 375.514 104.66C370.675 104.66 366.795 106.394 363.874 109.864C361.043 113.333 359.628 118.035 359.628 123.969C359.628 129.812 361.043 134.514 363.874 138.074C366.795 141.544 370.447 143.278 374.829 143.278C377.02 143.278 379.166 142.822 381.266 141.909C383.366 140.905 385.283 139.718 387.017 138.348L394.96 151.495C391.582 154.417 387.93 156.516 384.005 157.795C380.079 158.981 376.244 159.575 372.501 159.575ZM406.847 157.932V61.9326H426.43V116.985H426.978L448.478 90.0065H470.39L446.561 117.943L472.17 157.932H450.396L435.058 131.501L426.43 141.224V157.932H406.847ZM500.36 159.575C493.422 159.575 488.583 157.521 485.844 153.412C483.196 149.213 481.873 143.689 481.873 136.842V61.9326H502.004V137.664C502.004 139.763 502.369 141.224 503.099 142.046C503.921 142.867 504.743 143.278 505.564 143.278C506.021 143.278 506.386 143.278 506.66 143.278C507.025 143.187 507.481 143.096 508.029 143.004L510.494 157.932C509.399 158.388 507.984 158.753 506.249 159.027C504.606 159.392 502.643 159.575 500.36 159.575ZM551.459 159.575C544.977 159.575 539.134 158.16 533.93 155.33C528.726 152.499 524.618 148.437 521.605 143.141C518.592 137.846 517.086 131.455 517.086 123.969C517.086 116.574 518.592 110.229 521.605 104.934C524.709 99.6383 528.726 95.5756 533.656 92.7454C538.586 89.8239 543.745 88.3631 549.131 88.3631C555.613 88.3631 560.954 89.8239 565.154 92.7454C569.445 95.5756 572.64 99.4557 574.74 104.386C576.931 109.225 578.027 114.748 578.027 120.956C578.027 122.691 577.935 124.425 577.753 126.16C577.57 127.803 577.388 129.036 577.205 129.858H536.532C537.445 134.788 539.499 138.44 542.695 140.813C545.89 143.096 549.725 144.237 554.198 144.237C559.037 144.237 563.921 142.731 568.851 139.718L575.562 151.906C572.092 154.28 568.212 156.151 563.921 157.521C559.63 158.89 555.476 159.575 551.459 159.575ZM536.395 116.574H560.909C560.909 112.831 559.996 109.772 558.17 107.399C556.435 104.934 553.559 103.701 549.542 103.701C546.438 103.701 543.653 104.797 541.188 106.988C538.723 109.088 537.126 112.283 536.395 116.574ZM611.931 159.575C607.458 159.575 602.847 158.708 598.1 156.973C593.444 155.238 589.381 152.956 585.912 150.126L594.95 137.527C598.054 139.809 601.021 141.589 603.852 142.867C606.773 144.054 609.649 144.648 612.479 144.648C615.492 144.648 617.683 144.146 619.053 143.141C620.422 142.046 621.107 140.631 621.107 138.896C621.107 137.344 620.422 136.066 619.053 135.062C617.775 134.057 616.086 133.144 613.986 132.323C611.886 131.41 609.649 130.497 607.275 129.584C604.536 128.488 601.798 127.119 599.059 125.475C596.411 123.832 594.174 121.732 592.348 119.176C590.522 116.528 589.609 113.333 589.609 109.59C589.609 103.29 591.983 98.1776 596.731 94.2518C601.569 90.326 607.869 88.3631 615.629 88.3631C620.833 88.3631 625.398 89.2761 629.324 91.102C633.341 92.8367 636.764 94.7996 639.595 96.9907L630.556 109.042C628.182 107.216 625.809 105.801 623.435 104.797C621.061 103.792 618.687 103.29 616.314 103.29C611.11 103.29 608.508 105.07 608.508 108.631C608.508 110.822 609.786 112.511 612.342 113.698C614.99 114.794 618.048 115.98 621.518 117.259C624.439 118.263 627.269 119.587 630.008 121.23C632.839 122.782 635.167 124.882 636.993 127.53C638.91 130.086 639.868 133.464 639.868 137.664C639.868 143.78 637.495 148.984 632.747 153.275C628 157.475 621.061 159.575 611.931 159.575ZM682.234 159.575C675.934 159.575 670.228 158.205 665.116 155.466C660.094 152.636 656.077 148.574 653.064 143.278C650.143 137.892 648.682 131.455 648.682 123.969C648.682 116.391 650.325 109.955 653.612 104.66C656.899 99.3644 661.235 95.3473 666.622 92.6084C672.009 89.7782 677.806 88.3631 684.014 88.3631C688.214 88.3631 691.911 89.0478 695.107 90.4173C698.393 91.7868 701.315 93.5214 703.871 95.6212L694.422 108.631C691.227 105.983 688.168 104.66 685.247 104.66C680.408 104.66 676.528 106.394 673.606 109.864C670.776 113.333 669.361 118.035 669.361 123.969C669.361 129.812 670.776 134.514 673.606 138.074C676.528 141.544 680.18 143.278 684.562 143.278C686.753 143.278 688.898 142.822 690.998 141.909C693.098 140.905 695.015 139.718 696.75 138.348L704.693 151.495C701.315 154.417 697.663 156.516 693.737 157.795C689.811 158.981 685.977 159.575 682.234 159.575ZM732.36 159.575C726.152 159.575 721.222 157.612 717.57 153.686C713.918 149.669 712.092 144.785 712.092 139.033C712.092 131.912 715.105 126.343 721.131 122.326C727.156 118.309 736.879 115.615 750.3 114.246C750.117 111.233 749.205 108.859 747.561 107.125C746.009 105.299 743.361 104.386 739.618 104.386C736.788 104.386 733.912 104.934 730.991 106.029C728.069 107.125 724.965 108.631 721.678 110.548L714.42 97.2646C718.711 94.617 723.276 92.4715 728.115 90.8281C733.045 89.1848 738.158 88.3631 743.453 88.3631C752.126 88.3631 758.791 90.8738 763.447 95.8951C768.103 100.916 770.431 108.631 770.431 119.039V157.932H753.998L752.628 150.947H752.08C749.25 153.504 746.192 155.603 742.905 157.247C739.71 158.799 736.195 159.575 732.36 159.575ZM739.207 143.963C741.49 143.963 743.453 143.461 745.096 142.457C746.831 141.361 748.565 139.946 750.3 138.211V126.297C743.179 127.21 738.249 128.671 735.51 130.679C732.771 132.597 731.402 134.879 731.402 137.527C731.402 139.718 732.086 141.361 733.456 142.457C734.917 143.461 736.834 143.963 739.207 143.963ZM787.459 157.932V90.0065H803.893L805.262 98.634H805.81C808.732 95.8951 811.927 93.5214 815.396 91.5129C818.957 89.413 823.02 88.3631 827.585 88.3631C834.98 88.3631 840.32 90.8281 843.607 95.7582C846.985 100.597 848.674 107.262 848.674 115.752V157.932H828.543V118.354C828.543 113.424 827.858 110.046 826.489 108.22C825.211 106.394 823.111 105.481 820.189 105.481C817.633 105.481 815.442 106.075 813.616 107.262C811.79 108.357 809.782 109.955 807.59 112.055V157.932H787.459Z" fill="black"/>
</svg>
