<svg width="40" height="41" viewBox="0 0 40 41" fill="none" xmlns="http://www.w3.org/2000/svg">
<rect width="39.4817" height="39.4817" transform="translate(0.5 0.952881)" fill="black"/>
<path fill-rule="evenodd" clip-rule="evenodd" d="M15.9889 17.2921C15.9889 15.8831 14.8467 14.7408 13.4377 14.7408C12.0287 14.7408 10.8865 15.8831 10.8865 17.2921V29.1977C10.8865 30.6067 12.0287 31.749 13.4377 31.749C14.8467 31.749 15.9889 30.6067 15.9889 29.1977V17.2921ZM22.7922 17.2921C22.7922 15.8831 21.6499 14.7408 20.2409 14.7408C18.8319 14.7408 17.6897 15.8831 17.6897 17.2921V29.1977C17.6897 30.6067 18.8319 31.749 20.2409 31.749C21.6499 31.749 22.7922 30.6067 22.7922 29.1977V17.2921ZM27.0442 14.7408C28.4531 14.7408 29.5954 15.8831 29.5954 17.2921V22.3945C29.5954 23.8035 28.4531 24.9457 27.0442 24.9457C25.6352 24.9457 24.493 23.8035 24.493 22.3945V17.2921C24.493 15.8831 25.6352 14.7408 27.0442 14.7408ZM29.5954 28.3473C29.5954 26.9384 28.4531 25.7961 27.0442 25.7961C25.6352 25.7961 24.493 26.9384 24.493 28.3473V29.1977C24.493 30.6067 25.6352 31.749 27.0442 31.749C28.4531 31.749 29.5954 30.6067 29.5954 29.1977V28.3473Z" fill="#009F48"/>
<path d="M10.8865 10.4888C10.8865 10.0192 11.2672 9.63843 11.7369 9.63843H28.745C29.2146 9.63843 29.5954 10.0192 29.5954 10.4888C29.5954 12.3675 28.0725 13.8905 26.1938 13.8905H14.2881C12.4094 13.8905 10.8865 12.3675 10.8865 10.4888Z" fill="#F7F7F7"/>
</svg>