<svg width="40" height="41" viewBox="0 0 40 41" fill="none" xmlns="http://www.w3.org/2000/svg">
<path fill-rule="evenodd" clip-rule="evenodd" d="M15.4889 17.2921C15.4889 15.8831 14.3467 14.7408 12.9377 14.7408C11.5287 14.7408 10.3865 15.8831 10.3865 17.2921V29.1977C10.3865 30.6067 11.5287 31.749 12.9377 31.749C14.3467 31.749 15.4889 30.6067 15.4889 29.1977V17.2921ZM22.2922 17.2921C22.2922 15.8831 21.1499 14.7408 19.7409 14.7408C18.3319 14.7408 17.1897 15.8831 17.1897 17.2921V29.1977C17.1897 30.6067 18.3319 31.749 19.7409 31.749C21.1499 31.749 22.2922 30.6067 22.2922 29.1977V17.2921ZM26.5442 14.7408C27.9531 14.7408 29.0954 15.8831 29.0954 17.2921V22.3945C29.0954 23.8035 27.9531 24.9457 26.5442 24.9457C25.1352 24.9457 23.993 23.8035 23.993 22.3945V17.2921C23.993 15.8831 25.1352 14.7408 26.5442 14.7408ZM29.0954 28.3473C29.0954 26.9384 27.9531 25.7961 26.5442 25.7961C25.1352 25.7961 23.993 26.9384 23.993 28.3473V29.1977C23.993 30.6067 25.1352 31.749 26.5442 31.749C27.9531 31.749 29.0954 30.6067 29.0954 29.1977V28.3473Z" fill="#009F48"/>
<path d="M10.3865 10.4888C10.3865 10.0192 10.7672 9.63843 11.2369 9.63843H28.245C28.7146 9.63843 29.0954 10.0192 29.0954 10.4888C29.0954 12.3675 27.5725 13.8905 25.6938 13.8905H13.7881C11.9094 13.8905 10.3865 12.3675 10.3865 10.4888Z" fill="#777777"/>
</svg>